<?xml version="1.0" encoding="utf-8" standalone="no"?>
<!DOCTYPE svg PUBLIC "-//W3C//DTD SVG 1.1//EN"
  "http://www.w3.org/Graphics/SVG/1.1/DTD/svg11.dtd">
<svg xmlns:xlink="http://www.w3.org/1999/xlink" width="864pt" height="288pt" viewBox="0 0 864 288" xmlns="http://www.w3.org/2000/svg" version="1.1">
 <metadata>
  <rdf:RDF xmlns:dc="http://purl.org/dc/elements/1.1/" xmlns:cc="http://creativecommons.org/ns#" xmlns:rdf="http://www.w3.org/1999/02/22-rdf-syntax-ns#">
   <cc:Work>
    <dc:type rdf:resource="http://purl.org/dc/dcmitype/StillImage"/>
    <dc:date>2024-11-18T01:13:54.609222</dc:date>
    <dc:format>image/svg+xml</dc:format>
    <dc:creator>
     <cc:Agent>
      <dc:title>Matplotlib v3.5.1, https://matplotlib.org/</dc:title>
     </cc:Agent>
    </dc:creator>
   </cc:Work>
  </rdf:RDF>
 </metadata>
 <defs>
  <style type="text/css">*{stroke-linejoin: round; stroke-linecap: butt}</style>
 </defs>
 <g id="figure_1">
  <g id="patch_1">
   <path d="M 0 288 
L 864 288 
L 864 0 
L 0 0 
z
" style="fill: #ffffff"/>
  </g>
  <g id="axes_1">
   <g id="patch_2">
    <path d="M 108 256.32 
L 777.6 256.32 
L 777.6 34.56 
L 108 34.56 
z
" style="fill: #ffffff"/>
   </g>
   <g id="matplotlib.axis_1">
    <g id="xtick_1">
     <g id="line2d_1">
      <defs>
       <path id="m4fac6c0921" d="M 0 0 
L 0 3.5 
" style="stroke: #000000; stroke-width: 0.8"/>
      </defs>
      <g>
       <use xlink:href="#m4fac6c0921" x="138.436364" y="256.32" style="stroke: #000000; stroke-width: 0.8"/>
      </g>
     </g>
     <g id="text_1">
      <!-- 0 -->
      <g transform="translate(135.255114 270.918437)scale(0.1 -0.1)">
       <defs>
        <path id="DejaVuSans-30" d="M 2034 4250 
Q 1547 4250 1301 3770 
Q 1056 3291 1056 2328 
Q 1056 1369 1301 889 
Q 1547 409 2034 409 
Q 2525 409 2770 889 
Q 3016 1369 3016 2328 
Q 3016 3291 2770 3770 
Q 2525 4250 2034 4250 
z
M 2034 4750 
Q 2819 4750 3233 4129 
Q 3647 3509 3647 2328 
Q 3647 1150 3233 529 
Q 2819 -91 2034 -91 
Q 1250 -91 836 529 
Q 422 1150 422 2328 
Q 422 3509 836 4129 
Q 1250 4750 2034 4750 
z
" transform="scale(0.015625)"/>
       </defs>
       <use xlink:href="#DejaVuSans-30"/>
      </g>
     </g>
    </g>
    <g id="xtick_2">
     <g id="line2d_2">
      <g>
       <use xlink:href="#m4fac6c0921" x="267.952805" y="256.32" style="stroke: #000000; stroke-width: 0.8"/>
      </g>
     </g>
     <g id="text_2">
      <!-- 200 -->
      <g transform="translate(258.409055 270.918437)scale(0.1 -0.1)">
       <defs>
        <path id="DejaVuSans-32" d="M 1228 531 
L 3431 531 
L 3431 0 
L 469 0 
L 469 531 
Q 828 903 1448 1529 
Q 2069 2156 2228 2338 
Q 2531 2678 2651 2914 
Q 2772 3150 2772 3378 
Q 2772 3750 2511 3984 
Q 2250 4219 1831 4219 
Q 1534 4219 1204 4116 
Q 875 4013 500 3803 
L 500 4441 
Q 881 4594 1212 4672 
Q 1544 4750 1819 4750 
Q 2544 4750 2975 4387 
Q 3406 4025 3406 3419 
Q 3406 3131 3298 2873 
Q 3191 2616 2906 2266 
Q 2828 2175 2409 1742 
Q 1991 1309 1228 531 
z
" transform="scale(0.015625)"/>
       </defs>
       <use xlink:href="#DejaVuSans-32"/>
       <use xlink:href="#DejaVuSans-30" x="63.623047"/>
       <use xlink:href="#DejaVuSans-30" x="127.246094"/>
      </g>
     </g>
    </g>
    <g id="xtick_3">
     <g id="line2d_3">
      <g>
       <use xlink:href="#m4fac6c0921" x="397.469246" y="256.32" style="stroke: #000000; stroke-width: 0.8"/>
      </g>
     </g>
     <g id="text_3">
      <!-- 400 -->
      <g transform="translate(387.925496 270.918437)scale(0.1 -0.1)">
       <defs>
        <path id="DejaVuSans-34" d="M 2419 4116 
L 825 1625 
L 2419 1625 
L 2419 4116 
z
M 2253 4666 
L 3047 4666 
L 3047 1625 
L 3713 1625 
L 3713 1100 
L 3047 1100 
L 3047 0 
L 2419 0 
L 2419 1100 
L 313 1100 
L 313 1709 
L 2253 4666 
z
" transform="scale(0.015625)"/>
       </defs>
       <use xlink:href="#DejaVuSans-34"/>
       <use xlink:href="#DejaVuSans-30" x="63.623047"/>
       <use xlink:href="#DejaVuSans-30" x="127.246094"/>
      </g>
     </g>
    </g>
    <g id="xtick_4">
     <g id="line2d_4">
      <g>
       <use xlink:href="#m4fac6c0921" x="526.985687" y="256.32" style="stroke: #000000; stroke-width: 0.8"/>
      </g>
     </g>
     <g id="text_4">
      <!-- 600 -->
      <g transform="translate(517.441937 270.918437)scale(0.1 -0.1)">
       <defs>
        <path id="DejaVuSans-36" d="M 2113 2584 
Q 1688 2584 1439 2293 
Q 1191 2003 1191 1497 
Q 1191 994 1439 701 
Q 1688 409 2113 409 
Q 2538 409 2786 701 
Q 3034 994 3034 1497 
Q 3034 2003 2786 2293 
Q 2538 2584 2113 2584 
z
M 3366 4563 
L 3366 3988 
Q 3128 4100 2886 4159 
Q 2644 4219 2406 4219 
Q 1781 4219 1451 3797 
Q 1122 3375 1075 2522 
Q 1259 2794 1537 2939 
Q 1816 3084 2150 3084 
Q 2853 3084 3261 2657 
Q 3669 2231 3669 1497 
Q 3669 778 3244 343 
Q 2819 -91 2113 -91 
Q 1303 -91 875 529 
Q 447 1150 447 2328 
Q 447 3434 972 4092 
Q 1497 4750 2381 4750 
Q 2619 4750 2861 4703 
Q 3103 4656 3366 4563 
z
" transform="scale(0.015625)"/>
       </defs>
       <use xlink:href="#DejaVuSans-36"/>
       <use xlink:href="#DejaVuSans-30" x="63.623047"/>
       <use xlink:href="#DejaVuSans-30" x="127.246094"/>
      </g>
     </g>
    </g>
    <g id="xtick_5">
     <g id="line2d_5">
      <g>
       <use xlink:href="#m4fac6c0921" x="656.502128" y="256.32" style="stroke: #000000; stroke-width: 0.8"/>
      </g>
     </g>
     <g id="text_5">
      <!-- 800 -->
      <g transform="translate(646.958378 270.918437)scale(0.1 -0.1)">
       <defs>
        <path id="DejaVuSans-38" d="M 2034 2216 
Q 1584 2216 1326 1975 
Q 1069 1734 1069 1313 
Q 1069 891 1326 650 
Q 1584 409 2034 409 
Q 2484 409 2743 651 
Q 3003 894 3003 1313 
Q 3003 1734 2745 1975 
Q 2488 2216 2034 2216 
z
M 1403 2484 
Q 997 2584 770 2862 
Q 544 3141 544 3541 
Q 544 4100 942 4425 
Q 1341 4750 2034 4750 
Q 2731 4750 3128 4425 
Q 3525 4100 3525 3541 
Q 3525 3141 3298 2862 
Q 3072 2584 2669 2484 
Q 3125 2378 3379 2068 
Q 3634 1759 3634 1313 
Q 3634 634 3220 271 
Q 2806 -91 2034 -91 
Q 1263 -91 848 271 
Q 434 634 434 1313 
Q 434 1759 690 2068 
Q 947 2378 1403 2484 
z
M 1172 3481 
Q 1172 3119 1398 2916 
Q 1625 2713 2034 2713 
Q 2441 2713 2670 2916 
Q 2900 3119 2900 3481 
Q 2900 3844 2670 4047 
Q 2441 4250 2034 4250 
Q 1625 4250 1398 4047 
Q 1172 3844 1172 3481 
z
" transform="scale(0.015625)"/>
       </defs>
       <use xlink:href="#DejaVuSans-38"/>
       <use xlink:href="#DejaVuSans-30" x="63.623047"/>
       <use xlink:href="#DejaVuSans-30" x="127.246094"/>
      </g>
     </g>
    </g>
    <g id="text_6">
     <!-- Time (ms) -->
     <g transform="translate(417.600781 284.596563)scale(0.1 -0.1)">
      <defs>
       <path id="DejaVuSans-54" d="M -19 4666 
L 3928 4666 
L 3928 4134 
L 2272 4134 
L 2272 0 
L 1638 0 
L 1638 4134 
L -19 4134 
L -19 4666 
z
" transform="scale(0.015625)"/>
       <path id="DejaVuSans-69" d="M 603 3500 
L 1178 3500 
L 1178 0 
L 603 0 
L 603 3500 
z
M 603 4863 
L 1178 4863 
L 1178 4134 
L 603 4134 
L 603 4863 
z
" transform="scale(0.015625)"/>
       <path id="DejaVuSans-6d" d="M 3328 2828 
Q 3544 3216 3844 3400 
Q 4144 3584 4550 3584 
Q 5097 3584 5394 3201 
Q 5691 2819 5691 2113 
L 5691 0 
L 5113 0 
L 5113 2094 
Q 5113 2597 4934 2840 
Q 4756 3084 4391 3084 
Q 3944 3084 3684 2787 
Q 3425 2491 3425 1978 
L 3425 0 
L 2847 0 
L 2847 2094 
Q 2847 2600 2669 2842 
Q 2491 3084 2119 3084 
Q 1678 3084 1418 2786 
Q 1159 2488 1159 1978 
L 1159 0 
L 581 0 
L 581 3500 
L 1159 3500 
L 1159 2956 
Q 1356 3278 1631 3431 
Q 1906 3584 2284 3584 
Q 2666 3584 2933 3390 
Q 3200 3197 3328 2828 
z
" transform="scale(0.015625)"/>
       <path id="DejaVuSans-65" d="M 3597 1894 
L 3597 1613 
L 953 1613 
Q 991 1019 1311 708 
Q 1631 397 2203 397 
Q 2534 397 2845 478 
Q 3156 559 3463 722 
L 3463 178 
Q 3153 47 2828 -22 
Q 2503 -91 2169 -91 
Q 1331 -91 842 396 
Q 353 884 353 1716 
Q 353 2575 817 3079 
Q 1281 3584 2069 3584 
Q 2775 3584 3186 3129 
Q 3597 2675 3597 1894 
z
M 3022 2063 
Q 3016 2534 2758 2815 
Q 2500 3097 2075 3097 
Q 1594 3097 1305 2825 
Q 1016 2553 972 2059 
L 3022 2063 
z
" transform="scale(0.015625)"/>
       <path id="DejaVuSans-20" transform="scale(0.015625)"/>
       <path id="DejaVuSans-28" d="M 1984 4856 
Q 1566 4138 1362 3434 
Q 1159 2731 1159 2009 
Q 1159 1288 1364 580 
Q 1569 -128 1984 -844 
L 1484 -844 
Q 1016 -109 783 600 
Q 550 1309 550 2009 
Q 550 2706 781 3412 
Q 1013 4119 1484 4856 
L 1984 4856 
z
" transform="scale(0.015625)"/>
       <path id="DejaVuSans-73" d="M 2834 3397 
L 2834 2853 
Q 2591 2978 2328 3040 
Q 2066 3103 1784 3103 
Q 1356 3103 1142 2972 
Q 928 2841 928 2578 
Q 928 2378 1081 2264 
Q 1234 2150 1697 2047 
L 1894 2003 
Q 2506 1872 2764 1633 
Q 3022 1394 3022 966 
Q 3022 478 2636 193 
Q 2250 -91 1575 -91 
Q 1294 -91 989 -36 
Q 684 19 347 128 
L 347 722 
Q 666 556 975 473 
Q 1284 391 1588 391 
Q 1994 391 2212 530 
Q 2431 669 2431 922 
Q 2431 1156 2273 1281 
Q 2116 1406 1581 1522 
L 1381 1569 
Q 847 1681 609 1914 
Q 372 2147 372 2553 
Q 372 3047 722 3315 
Q 1072 3584 1716 3584 
Q 2034 3584 2315 3537 
Q 2597 3491 2834 3397 
z
" transform="scale(0.015625)"/>
       <path id="DejaVuSans-29" d="M 513 4856 
L 1013 4856 
Q 1481 4119 1714 3412 
Q 1947 2706 1947 2009 
Q 1947 1309 1714 600 
Q 1481 -109 1013 -844 
L 513 -844 
Q 928 -128 1133 580 
Q 1338 1288 1338 2009 
Q 1338 2731 1133 3434 
Q 928 4138 513 4856 
z
" transform="scale(0.015625)"/>
      </defs>
      <use xlink:href="#DejaVuSans-54"/>
      <use xlink:href="#DejaVuSans-69" x="57.958984"/>
      <use xlink:href="#DejaVuSans-6d" x="85.742188"/>
      <use xlink:href="#DejaVuSans-65" x="183.154297"/>
      <use xlink:href="#DejaVuSans-20" x="244.677734"/>
      <use xlink:href="#DejaVuSans-28" x="276.464844"/>
      <use xlink:href="#DejaVuSans-6d" x="315.478516"/>
      <use xlink:href="#DejaVuSans-73" x="412.890625"/>
      <use xlink:href="#DejaVuSans-29" x="464.990234"/>
     </g>
    </g>
   </g>
   <g id="matplotlib.axis_2">
    <g id="ytick_1">
     <g id="line2d_6">
      <defs>
       <path id="m93e7b4e433" d="M 0 0 
L -3.5 0 
" style="stroke: #000000; stroke-width: 0.8"/>
      </defs>
      <g>
       <use xlink:href="#m93e7b4e433" x="108" y="246.24" style="stroke: #000000; stroke-width: 0.8"/>
      </g>
     </g>
     <g id="text_7">
      <!-- 0.0 -->
      <g transform="translate(85.096875 250.039219)scale(0.1 -0.1)">
       <defs>
        <path id="DejaVuSans-2e" d="M 684 794 
L 1344 794 
L 1344 0 
L 684 0 
L 684 794 
z
" transform="scale(0.015625)"/>
       </defs>
       <use xlink:href="#DejaVuSans-30"/>
       <use xlink:href="#DejaVuSans-2e" x="63.623047"/>
       <use xlink:href="#DejaVuSans-30" x="95.410156"/>
      </g>
     </g>
    </g>
    <g id="ytick_2">
     <g id="line2d_7">
      <g>
       <use xlink:href="#m93e7b4e433" x="108" y="200.421818" style="stroke: #000000; stroke-width: 0.8"/>
      </g>
     </g>
     <g id="text_8">
      <!-- 0.2 -->
      <g transform="translate(85.096875 204.221037)scale(0.1 -0.1)">
       <use xlink:href="#DejaVuSans-30"/>
       <use xlink:href="#DejaVuSans-2e" x="63.623047"/>
       <use xlink:href="#DejaVuSans-32" x="95.410156"/>
      </g>
     </g>
    </g>
    <g id="ytick_3">
     <g id="line2d_8">
      <g>
       <use xlink:href="#m93e7b4e433" x="108" y="154.603636" style="stroke: #000000; stroke-width: 0.8"/>
      </g>
     </g>
     <g id="text_9">
      <!-- 0.4 -->
      <g transform="translate(85.096875 158.402855)scale(0.1 -0.1)">
       <use xlink:href="#DejaVuSans-30"/>
       <use xlink:href="#DejaVuSans-2e" x="63.623047"/>
       <use xlink:href="#DejaVuSans-34" x="95.410156"/>
      </g>
     </g>
    </g>
    <g id="ytick_4">
     <g id="line2d_9">
      <g>
       <use xlink:href="#m93e7b4e433" x="108" y="108.785455" style="stroke: #000000; stroke-width: 0.8"/>
      </g>
     </g>
     <g id="text_10">
      <!-- 0.6 -->
      <g transform="translate(85.096875 112.584673)scale(0.1 -0.1)">
       <use xlink:href="#DejaVuSans-30"/>
       <use xlink:href="#DejaVuSans-2e" x="63.623047"/>
       <use xlink:href="#DejaVuSans-36" x="95.410156"/>
      </g>
     </g>
    </g>
    <g id="ytick_5">
     <g id="line2d_10">
      <g>
       <use xlink:href="#m93e7b4e433" x="108" y="62.967273" style="stroke: #000000; stroke-width: 0.8"/>
      </g>
     </g>
     <g id="text_11">
      <!-- 0.8 -->
      <g transform="translate(85.096875 66.766491)scale(0.1 -0.1)">
       <use xlink:href="#DejaVuSans-30"/>
       <use xlink:href="#DejaVuSans-2e" x="63.623047"/>
       <use xlink:href="#DejaVuSans-38" x="95.410156"/>
      </g>
     </g>
    </g>
    <g id="text_12">
     <!-- Mean Firing Rate -->
     <g transform="translate(79.017187 187.393906)rotate(-90)scale(0.1 -0.1)">
      <defs>
       <path id="DejaVuSans-4d" d="M 628 4666 
L 1569 4666 
L 2759 1491 
L 3956 4666 
L 4897 4666 
L 4897 0 
L 4281 0 
L 4281 4097 
L 3078 897 
L 2444 897 
L 1241 4097 
L 1241 0 
L 628 0 
L 628 4666 
z
" transform="scale(0.015625)"/>
       <path id="DejaVuSans-61" d="M 2194 1759 
Q 1497 1759 1228 1600 
Q 959 1441 959 1056 
Q 959 750 1161 570 
Q 1363 391 1709 391 
Q 2188 391 2477 730 
Q 2766 1069 2766 1631 
L 2766 1759 
L 2194 1759 
z
M 3341 1997 
L 3341 0 
L 2766 0 
L 2766 531 
Q 2569 213 2275 61 
Q 1981 -91 1556 -91 
Q 1019 -91 701 211 
Q 384 513 384 1019 
Q 384 1609 779 1909 
Q 1175 2209 1959 2209 
L 2766 2209 
L 2766 2266 
Q 2766 2663 2505 2880 
Q 2244 3097 1772 3097 
Q 1472 3097 1187 3025 
Q 903 2953 641 2809 
L 641 3341 
Q 956 3463 1253 3523 
Q 1550 3584 1831 3584 
Q 2591 3584 2966 3190 
Q 3341 2797 3341 1997 
z
" transform="scale(0.015625)"/>
       <path id="DejaVuSans-6e" d="M 3513 2113 
L 3513 0 
L 2938 0 
L 2938 2094 
Q 2938 2591 2744 2837 
Q 2550 3084 2163 3084 
Q 1697 3084 1428 2787 
Q 1159 2491 1159 1978 
L 1159 0 
L 581 0 
L 581 3500 
L 1159 3500 
L 1159 2956 
Q 1366 3272 1645 3428 
Q 1925 3584 2291 3584 
Q 2894 3584 3203 3211 
Q 3513 2838 3513 2113 
z
" transform="scale(0.015625)"/>
       <path id="DejaVuSans-46" d="M 628 4666 
L 3309 4666 
L 3309 4134 
L 1259 4134 
L 1259 2759 
L 3109 2759 
L 3109 2228 
L 1259 2228 
L 1259 0 
L 628 0 
L 628 4666 
z
" transform="scale(0.015625)"/>
       <path id="DejaVuSans-72" d="M 2631 2963 
Q 2534 3019 2420 3045 
Q 2306 3072 2169 3072 
Q 1681 3072 1420 2755 
Q 1159 2438 1159 1844 
L 1159 0 
L 581 0 
L 581 3500 
L 1159 3500 
L 1159 2956 
Q 1341 3275 1631 3429 
Q 1922 3584 2338 3584 
Q 2397 3584 2469 3576 
Q 2541 3569 2628 3553 
L 2631 2963 
z
" transform="scale(0.015625)"/>
       <path id="DejaVuSans-67" d="M 2906 1791 
Q 2906 2416 2648 2759 
Q 2391 3103 1925 3103 
Q 1463 3103 1205 2759 
Q 947 2416 947 1791 
Q 947 1169 1205 825 
Q 1463 481 1925 481 
Q 2391 481 2648 825 
Q 2906 1169 2906 1791 
z
M 3481 434 
Q 3481 -459 3084 -895 
Q 2688 -1331 1869 -1331 
Q 1566 -1331 1297 -1286 
Q 1028 -1241 775 -1147 
L 775 -588 
Q 1028 -725 1275 -790 
Q 1522 -856 1778 -856 
Q 2344 -856 2625 -561 
Q 2906 -266 2906 331 
L 2906 616 
Q 2728 306 2450 153 
Q 2172 0 1784 0 
Q 1141 0 747 490 
Q 353 981 353 1791 
Q 353 2603 747 3093 
Q 1141 3584 1784 3584 
Q 2172 3584 2450 3431 
Q 2728 3278 2906 2969 
L 2906 3500 
L 3481 3500 
L 3481 434 
z
" transform="scale(0.015625)"/>
       <path id="DejaVuSans-52" d="M 2841 2188 
Q 3044 2119 3236 1894 
Q 3428 1669 3622 1275 
L 4263 0 
L 3584 0 
L 2988 1197 
Q 2756 1666 2539 1819 
Q 2322 1972 1947 1972 
L 1259 1972 
L 1259 0 
L 628 0 
L 628 4666 
L 2053 4666 
Q 2853 4666 3247 4331 
Q 3641 3997 3641 3322 
Q 3641 2881 3436 2590 
Q 3231 2300 2841 2188 
z
M 1259 4147 
L 1259 2491 
L 2053 2491 
Q 2509 2491 2742 2702 
Q 2975 2913 2975 3322 
Q 2975 3731 2742 3939 
Q 2509 4147 2053 4147 
L 1259 4147 
z
" transform="scale(0.015625)"/>
       <path id="DejaVuSans-74" d="M 1172 4494 
L 1172 3500 
L 2356 3500 
L 2356 3053 
L 1172 3053 
L 1172 1153 
Q 1172 725 1289 603 
Q 1406 481 1766 481 
L 2356 481 
L 2356 0 
L 1766 0 
Q 1100 0 847 248 
Q 594 497 594 1153 
L 594 3053 
L 172 3053 
L 172 3500 
L 594 3500 
L 594 4494 
L 1172 4494 
z
" transform="scale(0.015625)"/>
      </defs>
      <use xlink:href="#DejaVuSans-4d"/>
      <use xlink:href="#DejaVuSans-65" x="86.279297"/>
      <use xlink:href="#DejaVuSans-61" x="147.802734"/>
      <use xlink:href="#DejaVuSans-6e" x="209.082031"/>
      <use xlink:href="#DejaVuSans-20" x="272.460938"/>
      <use xlink:href="#DejaVuSans-46" x="304.248047"/>
      <use xlink:href="#DejaVuSans-69" x="354.517578"/>
      <use xlink:href="#DejaVuSans-72" x="382.300781"/>
      <use xlink:href="#DejaVuSans-69" x="423.414062"/>
      <use xlink:href="#DejaVuSans-6e" x="451.197266"/>
      <use xlink:href="#DejaVuSans-67" x="514.576172"/>
      <use xlink:href="#DejaVuSans-20" x="578.052734"/>
      <use xlink:href="#DejaVuSans-52" x="609.839844"/>
      <use xlink:href="#DejaVuSans-61" x="677.072266"/>
      <use xlink:href="#DejaVuSans-74" x="738.351562"/>
      <use xlink:href="#DejaVuSans-65" x="777.560547"/>
     </g>
    </g>
   </g>
   <g id="line2d_11">
    <path d="M 138.436364 246.24 
L 151.388008 246.24 
L 164.339652 246.24 
L 177.291296 246.24 
L 190.24294 241.658182 
L 203.194584 237.076364 
L 216.146228 227.912727 
L 229.097872 209.585455 
L 242.049516 191.258182 
L 255.001161 191.258182 
L 267.952805 172.930909 
L 280.904449 145.44 
L 293.856093 131.694545 
L 306.807737 117.949091 
L 319.759381 127.112727 
L 332.711025 145.44 
L 345.662669 182.094545 
L 358.614313 163.767273 
L 371.565957 150.021818 
L 384.517602 159.185455 
L 397.469246 172.930909 
L 410.42089 186.676364 
L 423.372534 195.84 
L 436.324178 168.349091 
L 449.275822 150.021818 
L 462.227466 150.021818 
L 475.17911 159.185455 
L 488.130754 154.603636 
L 501.082398 159.185455 
L 514.034043 186.676364 
L 526.985687 209.585455 
L 539.937331 218.749091 
L 552.888975 209.585455 
L 565.840619 163.767273 
L 578.792263 150.021818 
L 591.743907 154.603636 
L 604.695551 195.84 
L 617.647195 195.84 
L 630.598839 182.094545 
L 643.550484 168.349091 
L 656.502128 122.530909 
L 669.453772 122.530909 
L 682.405416 177.512727 
L 695.35706 191.258182 
L 708.308704 200.421818 
L 721.260348 163.767273 
L 734.211992 159.185455 
L 747.163636 154.603636 
" clip-path="url(#pfb252cdfa0)" style="fill: none; stroke: #1f77b4; stroke-width: 1.5; stroke-linecap: square"/>
   </g>
   <g id="line2d_12">
    <path d="M 138.436364 246.24 
L 151.388008 246.24 
L 164.339652 246.24 
L 177.291296 246.24 
L 190.24294 237.076364 
L 203.194584 227.912727 
L 216.146228 214.167273 
L 229.097872 191.258182 
L 242.049516 163.767273 
L 255.001161 163.767273 
L 267.952805 136.276364 
L 280.904449 99.621818 
L 293.856093 145.44 
L 306.807737 186.676364 
L 319.759381 209.585455 
L 332.711025 168.349091 
L 345.662669 150.021818 
L 358.614313 127.112727 
L 371.565957 136.276364 
L 384.517602 182.094545 
L 397.469246 209.585455 
L 410.42089 172.930909 
L 423.372534 145.44 
L 436.324178 136.276364 
L 449.275822 154.603636 
L 462.227466 131.694545 
L 475.17911 127.112727 
L 488.130754 154.603636 
L 501.082398 186.676364 
L 514.034043 223.330909 
L 526.985687 214.167273 
L 539.937331 150.021818 
L 552.888975 72.130909 
L 565.840619 44.64 
L 578.792263 99.621818 
L 591.743907 127.112727 
L 604.695551 117.949091 
L 617.647195 150.021818 
L 630.598839 154.603636 
L 643.550484 168.349091 
L 656.502128 168.349091 
L 669.453772 163.767273 
L 682.405416 154.603636 
L 695.35706 172.930909 
L 708.308704 205.003636 
L 721.260348 223.330909 
L 734.211992 177.512727 
L 747.163636 159.185455 
" clip-path="url(#pfb252cdfa0)" style="fill: none; stroke: #ff7f0e; stroke-width: 1.5; stroke-linecap: square"/>
   </g>
   <g id="line2d_13">
    <path d="M 138.436364 246.24 
L 151.388008 246.24 
L 164.339652 246.24 
L 177.291296 246.24 
L 190.24294 232.494545 
L 203.194584 223.330909 
L 216.146228 223.330909 
L 229.097872 223.330909 
L 242.049516 227.912727 
L 255.001161 214.167273 
L 267.952805 200.421818 
L 280.904449 209.585455 
L 293.856093 214.167273 
L 306.807737 186.676364 
L 319.759381 177.512727 
L 332.711025 154.603636 
L 345.662669 168.349091 
L 358.614313 154.603636 
L 371.565957 168.349091 
L 384.517602 163.767273 
L 397.469246 140.858182 
L 410.42089 150.021818 
L 423.372534 182.094545 
L 436.324178 191.258182 
L 449.275822 177.512727 
L 462.227466 163.767273 
L 475.17911 163.767273 
L 488.130754 168.349091 
L 501.082398 145.44 
L 514.034043 122.530909 
L 526.985687 145.44 
L 539.937331 177.512727 
L 552.888975 186.676364 
L 565.840619 182.094545 
L 578.792263 191.258182 
L 591.743907 182.094545 
L 604.695551 191.258182 
L 617.647195 195.84 
L 630.598839 163.767273 
L 643.550484 154.603636 
L 656.502128 177.512727 
L 669.453772 214.167273 
L 682.405416 209.585455 
L 695.35706 191.258182 
L 708.308704 172.930909 
L 721.260348 168.349091 
L 734.211992 159.185455 
L 747.163636 154.603636 
" clip-path="url(#pfb252cdfa0)" style="fill: none; stroke: #2ca02c; stroke-width: 1.5; stroke-linecap: square"/>
   </g>
   <g id="line2d_14">
    <path d="M 138.436364 246.24 
L 151.388008 246.24 
L 164.339652 246.24 
L 177.291296 246.24 
L 190.24294 241.658182 
L 203.194584 227.912727 
L 216.146228 209.585455 
L 229.097872 195.84 
L 242.049516 200.421818 
L 255.001161 172.930909 
L 267.952805 136.276364 
L 280.904449 150.021818 
L 293.856093 182.094545 
L 306.807737 186.676364 
L 319.759381 186.676364 
L 332.711025 182.094545 
L 345.662669 177.512727 
L 358.614313 182.094545 
L 371.565957 177.512727 
L 384.517602 131.694545 
L 397.469246 108.785455 
L 410.42089 127.112727 
L 423.372534 150.021818 
L 436.324178 159.185455 
L 449.275822 168.349091 
L 462.227466 200.421818 
L 475.17911 195.84 
L 488.130754 172.930909 
L 501.082398 172.930909 
L 514.034043 195.84 
L 526.985687 186.676364 
L 539.937331 186.676364 
L 552.888975 191.258182 
L 565.840619 191.258182 
L 578.792263 186.676364 
L 591.743907 177.512727 
L 604.695551 191.258182 
L 617.647195 209.585455 
L 630.598839 232.494545 
L 643.550484 232.494545 
L 656.502128 227.912727 
L 669.453772 195.84 
L 682.405416 154.603636 
L 695.35706 159.185455 
L 708.308704 163.767273 
L 721.260348 122.530909 
L 734.211992 104.203636 
L 747.163636 131.694545 
" clip-path="url(#pfb252cdfa0)" style="fill: none; stroke: #d62728; stroke-width: 1.5; stroke-linecap: square"/>
   </g>
   <g id="line2d_15">
    <path d="M 138.436364 246.24 
L 151.388008 246.24 
L 164.339652 246.24 
L 177.291296 241.658182 
L 190.24294 237.076364 
L 203.194584 218.749091 
L 216.146228 218.749091 
L 229.097872 200.421818 
L 242.049516 191.258182 
L 255.001161 154.603636 
L 267.952805 131.694545 
L 280.904449 136.276364 
L 293.856093 145.44 
L 306.807737 177.512727 
L 319.759381 191.258182 
L 332.711025 182.094545 
L 345.662669 127.112727 
L 358.614313 76.712727 
L 371.565957 58.385455 
L 384.517602 95.04 
L 397.469246 122.530909 
L 410.42089 159.185455 
L 423.372534 186.676364 
L 436.324178 200.421818 
L 449.275822 205.003636 
L 462.227466 182.094545 
L 475.17911 163.767273 
L 488.130754 154.603636 
L 501.082398 122.530909 
L 514.034043 145.44 
L 526.985687 200.421818 
L 539.937331 214.167273 
L 552.888975 214.167273 
L 565.840619 163.767273 
L 578.792263 99.621818 
L 591.743907 44.64 
L 604.695551 72.130909 
L 617.647195 117.949091 
L 630.598839 172.930909 
L 643.550484 182.094545 
L 656.502128 191.258182 
L 669.453772 177.512727 
L 682.405416 159.185455 
L 695.35706 99.621818 
L 708.308704 49.221818 
L 721.260348 67.549091 
L 734.211992 150.021818 
L 747.163636 182.094545 
" clip-path="url(#pfb252cdfa0)" style="fill: none; stroke: #9467bd; stroke-width: 1.5; stroke-linecap: square"/>
   </g>
   <g id="line2d_16">
    <path d="M 138.436364 246.24 
L 151.388008 246.24 
L 164.339652 246.24 
L 177.291296 237.076364 
L 190.24294 223.330909 
L 203.194584 218.749091 
L 216.146228 218.749091 
L 229.097872 232.494545 
L 242.049516 227.912727 
L 255.001161 227.912727 
L 267.952805 214.167273 
L 280.904449 205.003636 
L 293.856093 195.84 
L 306.807737 182.094545 
L 319.759381 177.512727 
L 332.711025 159.185455 
L 345.662669 154.603636 
L 358.614313 172.930909 
L 371.565957 154.603636 
L 384.517602 113.367273 
L 397.469246 104.203636 
L 410.42089 108.785455 
L 423.372534 113.367273 
L 436.324178 159.185455 
L 449.275822 172.930909 
L 462.227466 172.930909 
L 475.17911 168.349091 
L 488.130754 186.676364 
L 501.082398 191.258182 
L 514.034043 200.421818 
L 526.985687 214.167273 
L 539.937331 191.258182 
L 552.888975 186.676364 
L 565.840619 205.003636 
L 578.792263 205.003636 
L 591.743907 172.930909 
L 604.695551 168.349091 
L 617.647195 200.421818 
L 630.598839 209.585455 
L 643.550484 186.676364 
L 656.502128 150.021818 
L 669.453772 163.767273 
L 682.405416 195.84 
L 695.35706 182.094545 
L 708.308704 172.930909 
L 721.260348 150.021818 
L 734.211992 150.021818 
L 747.163636 163.767273 
" clip-path="url(#pfb252cdfa0)" style="fill: none; stroke: #8c564b; stroke-width: 1.5; stroke-linecap: square"/>
   </g>
   <g id="line2d_17">
    <path d="M 138.436364 246.24 
L 151.388008 246.24 
L 164.339652 246.24 
L 177.291296 246.24 
L 190.24294 237.076364 
L 203.194584 227.912727 
L 216.146228 227.912727 
L 229.097872 223.330909 
L 242.049516 195.84 
L 255.001161 168.349091 
L 267.952805 145.44 
L 280.904449 140.858182 
L 293.856093 117.949091 
L 306.807737 131.694545 
L 319.759381 108.785455 
L 332.711025 127.112727 
L 345.662669 154.603636 
L 358.614313 117.949091 
L 371.565957 117.949091 
L 384.517602 127.112727 
L 397.469246 159.185455 
L 410.42089 200.421818 
L 423.372534 227.912727 
L 436.324178 237.076364 
L 449.275822 214.167273 
L 462.227466 168.349091 
L 475.17911 145.44 
L 488.130754 163.767273 
L 501.082398 172.930909 
L 514.034043 159.185455 
L 526.985687 172.930909 
L 539.937331 205.003636 
L 552.888975 154.603636 
L 565.840619 99.621818 
L 578.792263 108.785455 
L 591.743907 150.021818 
L 604.695551 163.767273 
L 617.647195 172.930909 
L 630.598839 182.094545 
L 643.550484 195.84 
L 656.502128 205.003636 
L 669.453772 191.258182 
L 682.405416 186.676364 
L 695.35706 200.421818 
L 708.308704 209.585455 
L 721.260348 191.258182 
L 734.211992 150.021818 
L 747.163636 117.949091 
" clip-path="url(#pfb252cdfa0)" style="fill: none; stroke: #e377c2; stroke-width: 1.5; stroke-linecap: square"/>
   </g>
   <g id="line2d_18">
    <path d="M 138.436364 246.24 
L 151.388008 246.24 
L 164.339652 246.24 
L 177.291296 241.658182 
L 190.24294 237.076364 
L 203.194584 218.749091 
L 216.146228 200.421818 
L 229.097872 186.676364 
L 242.049516 186.676364 
L 255.001161 182.094545 
L 267.952805 154.603636 
L 280.904449 131.694545 
L 293.856093 127.112727 
L 306.807737 150.021818 
L 319.759381 150.021818 
L 332.711025 163.767273 
L 345.662669 218.749091 
L 358.614313 205.003636 
L 371.565957 186.676364 
L 384.517602 136.276364 
L 397.469246 99.621818 
L 410.42089 117.949091 
L 423.372534 117.949091 
L 436.324178 113.367273 
L 449.275822 140.858182 
L 462.227466 168.349091 
L 475.17911 195.84 
L 488.130754 209.585455 
L 501.082398 182.094545 
L 514.034043 154.603636 
L 526.985687 117.949091 
L 539.937331 127.112727 
L 552.888975 168.349091 
L 565.840619 191.258182 
L 578.792263 200.421818 
L 591.743907 200.421818 
L 604.695551 177.512727 
L 617.647195 122.530909 
L 630.598839 104.203636 
L 643.550484 136.276364 
L 656.502128 168.349091 
L 669.453772 177.512727 
L 682.405416 191.258182 
L 695.35706 209.585455 
L 708.308704 218.749091 
L 721.260348 195.84 
L 734.211992 177.512727 
L 747.163636 172.930909 
" clip-path="url(#pfb252cdfa0)" style="fill: none; stroke: #7f7f7f; stroke-width: 1.5; stroke-linecap: square"/>
   </g>
   <g id="patch_3">
    <path d="M 108 256.32 
L 108 34.56 
" style="fill: none; stroke: #000000; stroke-width: 0.8; stroke-linejoin: miter; stroke-linecap: square"/>
   </g>
   <g id="patch_4">
    <path d="M 777.6 256.32 
L 777.6 34.56 
" style="fill: none; stroke: #000000; stroke-width: 0.8; stroke-linejoin: miter; stroke-linecap: square"/>
   </g>
   <g id="patch_5">
    <path d="M 108 256.32 
L 777.6 256.32 
" style="fill: none; stroke: #000000; stroke-width: 0.8; stroke-linejoin: miter; stroke-linecap: square"/>
   </g>
   <g id="patch_6">
    <path d="M 108 34.56 
L 777.6 34.56 
" style="fill: none; stroke: #000000; stroke-width: 0.8; stroke-linejoin: miter; stroke-linecap: square"/>
   </g>
   <g id="text_13">
    <!-- Mean Firing Rates, p=0.5 -->
    <g transform="translate(367.137187 28.56)scale(0.12 -0.12)">
     <defs>
      <path id="DejaVuSans-2c" d="M 750 794 
L 1409 794 
L 1409 256 
L 897 -744 
L 494 -744 
L 750 256 
L 750 794 
z
" transform="scale(0.015625)"/>
      <path id="DejaVuSans-70" d="M 1159 525 
L 1159 -1331 
L 581 -1331 
L 581 3500 
L 1159 3500 
L 1159 2969 
Q 1341 3281 1617 3432 
Q 1894 3584 2278 3584 
Q 2916 3584 3314 3078 
Q 3713 2572 3713 1747 
Q 3713 922 3314 415 
Q 2916 -91 2278 -91 
Q 1894 -91 1617 61 
Q 1341 213 1159 525 
z
M 3116 1747 
Q 3116 2381 2855 2742 
Q 2594 3103 2138 3103 
Q 1681 3103 1420 2742 
Q 1159 2381 1159 1747 
Q 1159 1113 1420 752 
Q 1681 391 2138 391 
Q 2594 391 2855 752 
Q 3116 1113 3116 1747 
z
" transform="scale(0.015625)"/>
      <path id="DejaVuSans-3d" d="M 678 2906 
L 4684 2906 
L 4684 2381 
L 678 2381 
L 678 2906 
z
M 678 1631 
L 4684 1631 
L 4684 1100 
L 678 1100 
L 678 1631 
z
" transform="scale(0.015625)"/>
      <path id="DejaVuSans-35" d="M 691 4666 
L 3169 4666 
L 3169 4134 
L 1269 4134 
L 1269 2991 
Q 1406 3038 1543 3061 
Q 1681 3084 1819 3084 
Q 2600 3084 3056 2656 
Q 3513 2228 3513 1497 
Q 3513 744 3044 326 
Q 2575 -91 1722 -91 
Q 1428 -91 1123 -41 
Q 819 9 494 109 
L 494 744 
Q 775 591 1075 516 
Q 1375 441 1709 441 
Q 2250 441 2565 725 
Q 2881 1009 2881 1497 
Q 2881 1984 2565 2268 
Q 2250 2553 1709 2553 
Q 1456 2553 1204 2497 
Q 953 2441 691 2322 
L 691 4666 
z
" transform="scale(0.015625)"/>
     </defs>
     <use xlink:href="#DejaVuSans-4d"/>
     <use xlink:href="#DejaVuSans-65" x="86.279297"/>
     <use xlink:href="#DejaVuSans-61" x="147.802734"/>
     <use xlink:href="#DejaVuSans-6e" x="209.082031"/>
     <use xlink:href="#DejaVuSans-20" x="272.460938"/>
     <use xlink:href="#DejaVuSans-46" x="304.248047"/>
     <use xlink:href="#DejaVuSans-69" x="354.517578"/>
     <use xlink:href="#DejaVuSans-72" x="382.300781"/>
     <use xlink:href="#DejaVuSans-69" x="423.414062"/>
     <use xlink:href="#DejaVuSans-6e" x="451.197266"/>
     <use xlink:href="#DejaVuSans-67" x="514.576172"/>
     <use xlink:href="#DejaVuSans-20" x="578.052734"/>
     <use xlink:href="#DejaVuSans-52" x="609.839844"/>
     <use xlink:href="#DejaVuSans-61" x="677.072266"/>
     <use xlink:href="#DejaVuSans-74" x="738.351562"/>
     <use xlink:href="#DejaVuSans-65" x="777.560547"/>
     <use xlink:href="#DejaVuSans-73" x="839.083984"/>
     <use xlink:href="#DejaVuSans-2c" x="891.183594"/>
     <use xlink:href="#DejaVuSans-20" x="922.970703"/>
     <use xlink:href="#DejaVuSans-70" x="954.757812"/>
     <use xlink:href="#DejaVuSans-3d" x="1018.234375"/>
     <use xlink:href="#DejaVuSans-30" x="1102.023438"/>
     <use xlink:href="#DejaVuSans-2e" x="1165.646484"/>
     <use xlink:href="#DejaVuSans-35" x="1197.433594"/>
    </g>
   </g>
   <g id="legend_1">
    <g id="patch_7">
     <path d="M 115 159.985 
L 192.904687 159.985 
Q 194.904687 159.985 194.904687 157.985 
L 194.904687 41.56 
Q 194.904687 39.56 192.904687 39.56 
L 115 39.56 
Q 113 39.56 113 41.56 
L 113 157.985 
Q 113 159.985 115 159.985 
z
" style="fill: #ffffff; opacity: 0.8; stroke: #cccccc; stroke-linejoin: miter"/>
    </g>
    <g id="line2d_19">
     <path d="M 117 47.658438 
L 127 47.658438 
L 137 47.658438 
" style="fill: none; stroke: #1f77b4; stroke-width: 1.5; stroke-linecap: square"/>
    </g>
    <g id="text_14">
     <!-- Module 0 -->
     <g transform="translate(145 51.158438)scale(0.1 -0.1)">
      <defs>
       <path id="DejaVuSans-6f" d="M 1959 3097 
Q 1497 3097 1228 2736 
Q 959 2375 959 1747 
Q 959 1119 1226 758 
Q 1494 397 1959 397 
Q 2419 397 2687 759 
Q 2956 1122 2956 1747 
Q 2956 2369 2687 2733 
Q 2419 3097 1959 3097 
z
M 1959 3584 
Q 2709 3584 3137 3096 
Q 3566 2609 3566 1747 
Q 3566 888 3137 398 
Q 2709 -91 1959 -91 
Q 1206 -91 779 398 
Q 353 888 353 1747 
Q 353 2609 779 3096 
Q 1206 3584 1959 3584 
z
" transform="scale(0.015625)"/>
       <path id="DejaVuSans-64" d="M 2906 2969 
L 2906 4863 
L 3481 4863 
L 3481 0 
L 2906 0 
L 2906 525 
Q 2725 213 2448 61 
Q 2172 -91 1784 -91 
Q 1150 -91 751 415 
Q 353 922 353 1747 
Q 353 2572 751 3078 
Q 1150 3584 1784 3584 
Q 2172 3584 2448 3432 
Q 2725 3281 2906 2969 
z
M 947 1747 
Q 947 1113 1208 752 
Q 1469 391 1925 391 
Q 2381 391 2643 752 
Q 2906 1113 2906 1747 
Q 2906 2381 2643 2742 
Q 2381 3103 1925 3103 
Q 1469 3103 1208 2742 
Q 947 2381 947 1747 
z
" transform="scale(0.015625)"/>
       <path id="DejaVuSans-75" d="M 544 1381 
L 544 3500 
L 1119 3500 
L 1119 1403 
Q 1119 906 1312 657 
Q 1506 409 1894 409 
Q 2359 409 2629 706 
Q 2900 1003 2900 1516 
L 2900 3500 
L 3475 3500 
L 3475 0 
L 2900 0 
L 2900 538 
Q 2691 219 2414 64 
Q 2138 -91 1772 -91 
Q 1169 -91 856 284 
Q 544 659 544 1381 
z
M 1991 3584 
L 1991 3584 
z
" transform="scale(0.015625)"/>
       <path id="DejaVuSans-6c" d="M 603 4863 
L 1178 4863 
L 1178 0 
L 603 0 
L 603 4863 
z
" transform="scale(0.015625)"/>
      </defs>
      <use xlink:href="#DejaVuSans-4d"/>
      <use xlink:href="#DejaVuSans-6f" x="86.279297"/>
      <use xlink:href="#DejaVuSans-64" x="147.460938"/>
      <use xlink:href="#DejaVuSans-75" x="210.9375"/>
      <use xlink:href="#DejaVuSans-6c" x="274.316406"/>
      <use xlink:href="#DejaVuSans-65" x="302.099609"/>
      <use xlink:href="#DejaVuSans-20" x="363.623047"/>
      <use xlink:href="#DejaVuSans-30" x="395.410156"/>
     </g>
    </g>
    <g id="line2d_20">
     <path d="M 117 62.336563 
L 127 62.336563 
L 137 62.336563 
" style="fill: none; stroke: #ff7f0e; stroke-width: 1.5; stroke-linecap: square"/>
    </g>
    <g id="text_15">
     <!-- Module 1 -->
     <g transform="translate(145 65.836563)scale(0.1 -0.1)">
      <defs>
       <path id="DejaVuSans-31" d="M 794 531 
L 1825 531 
L 1825 4091 
L 703 3866 
L 703 4441 
L 1819 4666 
L 2450 4666 
L 2450 531 
L 3481 531 
L 3481 0 
L 794 0 
L 794 531 
z
" transform="scale(0.015625)"/>
      </defs>
      <use xlink:href="#DejaVuSans-4d"/>
      <use xlink:href="#DejaVuSans-6f" x="86.279297"/>
      <use xlink:href="#DejaVuSans-64" x="147.460938"/>
      <use xlink:href="#DejaVuSans-75" x="210.9375"/>
      <use xlink:href="#DejaVuSans-6c" x="274.316406"/>
      <use xlink:href="#DejaVuSans-65" x="302.099609"/>
      <use xlink:href="#DejaVuSans-20" x="363.623047"/>
      <use xlink:href="#DejaVuSans-31" x="395.410156"/>
     </g>
    </g>
    <g id="line2d_21">
     <path d="M 117 77.014688 
L 127 77.014688 
L 137 77.014688 
" style="fill: none; stroke: #2ca02c; stroke-width: 1.5; stroke-linecap: square"/>
    </g>
    <g id="text_16">
     <!-- Module 2 -->
     <g transform="translate(145 80.514688)scale(0.1 -0.1)">
      <use xlink:href="#DejaVuSans-4d"/>
      <use xlink:href="#DejaVuSans-6f" x="86.279297"/>
      <use xlink:href="#DejaVuSans-64" x="147.460938"/>
      <use xlink:href="#DejaVuSans-75" x="210.9375"/>
      <use xlink:href="#DejaVuSans-6c" x="274.316406"/>
      <use xlink:href="#DejaVuSans-65" x="302.099609"/>
      <use xlink:href="#DejaVuSans-20" x="363.623047"/>
      <use xlink:href="#DejaVuSans-32" x="395.410156"/>
     </g>
    </g>
    <g id="line2d_22">
     <path d="M 117 91.692813 
L 127 91.692813 
L 137 91.692813 
" style="fill: none; stroke: #d62728; stroke-width: 1.5; stroke-linecap: square"/>
    </g>
    <g id="text_17">
     <!-- Module 3 -->
     <g transform="translate(145 95.192813)scale(0.1 -0.1)">
      <defs>
       <path id="DejaVuSans-33" d="M 2597 2516 
Q 3050 2419 3304 2112 
Q 3559 1806 3559 1356 
Q 3559 666 3084 287 
Q 2609 -91 1734 -91 
Q 1441 -91 1130 -33 
Q 819 25 488 141 
L 488 750 
Q 750 597 1062 519 
Q 1375 441 1716 441 
Q 2309 441 2620 675 
Q 2931 909 2931 1356 
Q 2931 1769 2642 2001 
Q 2353 2234 1838 2234 
L 1294 2234 
L 1294 2753 
L 1863 2753 
Q 2328 2753 2575 2939 
Q 2822 3125 2822 3475 
Q 2822 3834 2567 4026 
Q 2313 4219 1838 4219 
Q 1578 4219 1281 4162 
Q 984 4106 628 3988 
L 628 4550 
Q 988 4650 1302 4700 
Q 1616 4750 1894 4750 
Q 2613 4750 3031 4423 
Q 3450 4097 3450 3541 
Q 3450 3153 3228 2886 
Q 3006 2619 2597 2516 
z
" transform="scale(0.015625)"/>
      </defs>
      <use xlink:href="#DejaVuSans-4d"/>
      <use xlink:href="#DejaVuSans-6f" x="86.279297"/>
      <use xlink:href="#DejaVuSans-64" x="147.460938"/>
      <use xlink:href="#DejaVuSans-75" x="210.9375"/>
      <use xlink:href="#DejaVuSans-6c" x="274.316406"/>
      <use xlink:href="#DejaVuSans-65" x="302.099609"/>
      <use xlink:href="#DejaVuSans-20" x="363.623047"/>
      <use xlink:href="#DejaVuSans-33" x="395.410156"/>
     </g>
    </g>
    <g id="line2d_23">
     <path d="M 117 106.370938 
L 127 106.370938 
L 137 106.370938 
" style="fill: none; stroke: #9467bd; stroke-width: 1.5; stroke-linecap: square"/>
    </g>
    <g id="text_18">
     <!-- Module 4 -->
     <g transform="translate(145 109.870938)scale(0.1 -0.1)">
      <use xlink:href="#DejaVuSans-4d"/>
      <use xlink:href="#DejaVuSans-6f" x="86.279297"/>
      <use xlink:href="#DejaVuSans-64" x="147.460938"/>
      <use xlink:href="#DejaVuSans-75" x="210.9375"/>
      <use xlink:href="#DejaVuSans-6c" x="274.316406"/>
      <use xlink:href="#DejaVuSans-65" x="302.099609"/>
      <use xlink:href="#DejaVuSans-20" x="363.623047"/>
      <use xlink:href="#DejaVuSans-34" x="395.410156"/>
     </g>
    </g>
    <g id="line2d_24">
     <path d="M 117 121.049063 
L 127 121.049063 
L 137 121.049063 
" style="fill: none; stroke: #8c564b; stroke-width: 1.5; stroke-linecap: square"/>
    </g>
    <g id="text_19">
     <!-- Module 5 -->
     <g transform="translate(145 124.549063)scale(0.1 -0.1)">
      <use xlink:href="#DejaVuSans-4d"/>
      <use xlink:href="#DejaVuSans-6f" x="86.279297"/>
      <use xlink:href="#DejaVuSans-64" x="147.460938"/>
      <use xlink:href="#DejaVuSans-75" x="210.9375"/>
      <use xlink:href="#DejaVuSans-6c" x="274.316406"/>
      <use xlink:href="#DejaVuSans-65" x="302.099609"/>
      <use xlink:href="#DejaVuSans-20" x="363.623047"/>
      <use xlink:href="#DejaVuSans-35" x="395.410156"/>
     </g>
    </g>
    <g id="line2d_25">
     <path d="M 117 135.727188 
L 127 135.727188 
L 137 135.727188 
" style="fill: none; stroke: #e377c2; stroke-width: 1.5; stroke-linecap: square"/>
    </g>
    <g id="text_20">
     <!-- Module 6 -->
     <g transform="translate(145 139.227188)scale(0.1 -0.1)">
      <use xlink:href="#DejaVuSans-4d"/>
      <use xlink:href="#DejaVuSans-6f" x="86.279297"/>
      <use xlink:href="#DejaVuSans-64" x="147.460938"/>
      <use xlink:href="#DejaVuSans-75" x="210.9375"/>
      <use xlink:href="#DejaVuSans-6c" x="274.316406"/>
      <use xlink:href="#DejaVuSans-65" x="302.099609"/>
      <use xlink:href="#DejaVuSans-20" x="363.623047"/>
      <use xlink:href="#DejaVuSans-36" x="395.410156"/>
     </g>
    </g>
    <g id="line2d_26">
     <path d="M 117 150.405313 
L 127 150.405313 
L 137 150.405313 
" style="fill: none; stroke: #7f7f7f; stroke-width: 1.5; stroke-linecap: square"/>
    </g>
    <g id="text_21">
     <!-- Module 7 -->
     <g transform="translate(145 153.905313)scale(0.1 -0.1)">
      <defs>
       <path id="DejaVuSans-37" d="M 525 4666 
L 3525 4666 
L 3525 4397 
L 1831 0 
L 1172 0 
L 2766 4134 
L 525 4134 
L 525 4666 
z
" transform="scale(0.015625)"/>
      </defs>
      <use xlink:href="#DejaVuSans-4d"/>
      <use xlink:href="#DejaVuSans-6f" x="86.279297"/>
      <use xlink:href="#DejaVuSans-64" x="147.460938"/>
      <use xlink:href="#DejaVuSans-75" x="210.9375"/>
      <use xlink:href="#DejaVuSans-6c" x="274.316406"/>
      <use xlink:href="#DejaVuSans-65" x="302.099609"/>
      <use xlink:href="#DejaVuSans-20" x="363.623047"/>
      <use xlink:href="#DejaVuSans-37" x="395.410156"/>
     </g>
    </g>
   </g>
  </g>
 </g>
 <defs>
  <clipPath id="pfb252cdfa0">
   <rect x="108" y="34.56" width="669.6" height="221.76"/>
  </clipPath>
 </defs>
</svg>
